<?xml version="1.0" encoding="UTF-8"?>
<svg version="1.1" xmlns="http://www.w3.org/2000/svg" width="133" height="133">
<path d="M0 0 C15.51 0 31.02 0 47 0 C49.79799887 6.52866402 51.9796451 13.01756746 54.01660156 19.79614258 C54.621261 21.80010818 55.23999773 23.79937017 55.859375 25.79882812 C58.01888754 32.88932662 59.58517315 39.58318204 60 47 C54.39 47 48.78 47 43 47 C41.63962936 43.59907341 40.50140143 40.48063438 39.52734375 36.98828125 C39.26759766 36.06595703 39.00785156 35.14363281 38.74023438 34.19335938 C38.47533203 33.24267578 38.21042969 32.29199219 37.9375 31.3125 C37.40675501 29.41225476 36.87428761 27.5124895 36.33984375 25.61328125 C36.10644287 24.77579346 35.87304199 23.93830566 35.63256836 23.07543945 C35.05306675 20.96695196 35.05306675 20.96695196 34 19 C31.1840151 18.53101037 31.1840151 18.53101037 27.9375 18.375 C26.83277344 18.30023437 25.72804688 18.22546875 24.58984375 18.1484375 C23.73519531 18.09945313 22.88054688 18.05046875 22 18 C22.235979 18.77263184 22.47195801 19.54526367 22.71508789 20.34130859 C27.84689039 37.18535916 32.72162111 54.06189227 37.22119141 71.08789062 C38.62120495 76.3228002 40.09252596 81.53808948 41.57910156 86.74902344 C43 91.78631415 43 91.78631415 43 94 C46.96 94 50.92 94 55 94 C55.25652344 92.77152344 55.51304688 91.54304688 55.77734375 90.27734375 C57.10741419 84.29495644 58.83002401 78.43862989 60.5625 72.5625 C60.87896484 71.47517578 61.19542969 70.38785156 61.52148438 69.26757812 C63.86624765 61.2675047 63.86624765 61.2675047 65 59 C86.12 59 107.24 59 129 59 C129.061875 65.80625 129.12375 72.6125 129.1875 79.625 C129.22846802 82.83210693 129.22846802 82.83210693 129.27026367 86.10400391 C129.27903109 87.8115177 129.28667442 89.5190378 129.29296875 91.2265625 C129.3159906 92.540802 129.3159906 92.540802 129.33947754 93.8815918 C129.34166589 99.02422558 128.87045011 102.54915117 126 107 C120.59562675 112.1272259 116.14949158 112.14751616 108.953125 112.09765625 C108.18192322 112.0962413 107.41072144 112.09482635 106.6161499 112.09336853 C104.16072662 112.08778534 101.70539558 112.07523595 99.25 112.0625 C97.58203257 112.05748283 95.91406371 112.0529203 94.24609375 112.04882812 C90.16402713 112.03782141 86.08202919 112.02056836 82 112 C80.64134218 107.92402653 82.05431183 105.18237422 83.4375 101.3125 C84.7059375 97.6928125 84.7059375 97.6928125 86 94 C94.58 94 103.16 94 112 94 C112 88.39 112 82.78 112 77 C100.78 77.33 89.56 77.66 78 78 C75.08247468 88.0668268 75.08247468 88.0668268 72.16625977 98.1340332 C71.80330811 99.38531006 71.44035645 100.63658691 71.06640625 101.92578125 C70.87719604 102.57977905 70.68798584 103.23377686 70.49304199 103.90759277 C69.70490662 106.62251309 68.89411328 109.31766017 68 112 C62.77493313 113.74168896 57.27090806 113.02415251 51.8125 112.875 C50.60529297 112.8646875 49.39808594 112.854375 48.15429688 112.84375 C40.96488061 112.63934888 35.33532322 112.15085278 30 107 C25.30613982 100.89554972 24.03471266 93.42492216 22.1875 86.0625 C21.48824348 83.34500611 20.78123517 80.62954634 20.07421875 77.9140625 C19.89877533 77.23667526 19.72333191 76.55928802 19.54257202 75.8613739 C17.97935587 69.85058584 16.26873293 63.89048567 14.5 57.9375 C11.45243389 47.64965562 8.57716215 37.31908206 5.75195312 26.96850586 C5.43677734 25.81616455 5.12160156 24.66382324 4.796875 23.4765625 C4.49587891 22.3721582 4.19488281 21.26775391 3.88476562 20.12988281 C2.86340256 16.51678279 1.72616771 12.94905899 0.52441406 9.39208984 C0 7 0 7 0 0 Z " fill="#017488" transform="translate(1,12)"/>
<path d="M0 0 C5.01703179 -0.09922625 10.03348652 -0.17163587 15.05126953 -0.21972656 C16.75644894 -0.23978369 18.46156006 -0.26703657 20.16650391 -0.30175781 C22.62419524 -0.35053861 25.08097366 -0.37302719 27.5390625 -0.390625 C28.29555084 -0.41127014 29.05203918 -0.43191528 29.83145142 -0.45318604 C35.01496996 -0.45536024 37.8664568 0.61878172 42 4 C46.57913591 9.19793806 47.14287984 12.28962229 47.09765625 19.0703125 C47.09664917 19.77599365 47.09564209 20.4816748 47.09460449 21.20874023 C47.08936828 23.84750999 47.07540702 26.48625661 47.0625 29.125 C47.041875 35.02375 47.02125 40.9225 47 47 C27.53 47 8.06 47 -12 47 C-13.01895833 41.90520835 -12.48800203 39.11131293 -11.015625 34.35546875 C-10.69123444 33.26254265 -10.69123444 33.26254265 -10.36029053 32.14753723 C-9.66744995 29.82419754 -8.95865589 27.50605817 -8.25 25.1875 C-7.78808126 23.64026656 -7.32713386 22.09274279 -6.8671875 20.54492188 C-6.41754731 19.04400673 -5.96705328 17.54334706 -5.515625 16.04296875 C-5.30923401 15.35623581 -5.10284302 14.66950287 -4.89019775 13.96195984 C-3.44221846 9.23083926 -1.7735002 4.61916189 0 0 Z M13 18 C12.505 19.44375 12.01 20.8875 11.5 22.375 C11.2215625 23.18710937 10.943125 23.99921875 10.65625 24.8359375 C9.90326695 26.94209242 9.90326695 26.94209242 10 29 C16.6 29 23.2 29 30 29 C30 25.37 30 21.74 30 18 C24.39 18 18.78 18 13 18 Z " fill="#F08F10" transform="translate(83,12)"/>
</svg>
